<?xml version="1.0" standalone="no"?>
<!DOCTYPE svg PUBLIC "-//W3C//DTD SVG 20010904//EN"
 "http://www.w3.org/TR/2001/REC-SVG-20010904/DTD/svg10.dtd">
<svg version="1.0" xmlns="http://www.w3.org/2000/svg"
 width="1280.000000pt" height="720.000000pt" viewBox="0 0 1280.000000 720.000000"
 preserveAspectRatio="xMidYMid meet">

<g transform="translate(0.000000,720.000000) scale(0.100000,-0.100000)"
fill="#000000" stroke="none">
<path d="M0 3880 c0 -3271 0 -3320 19 -3308 37 23 68 -25 35 -53 -12 -10 -20
-10 -35 -1 -18 12 -19 9 -19 -66 l0 -79 29 5 c19 3 30 -1 34 -12 11 -29 -4
-48 -34 -44 l-29 5 0 -79 c0 -75 1 -78 19 -66 15 9 23 9 35 -1 9 -8 16 -19 16
-26 0 -7 -7 -18 -16 -26 -12 -10 -20 -10 -35 -1 -18 12 -19 9 -19 -58 l0 -70
3326 0 3327 0 -7 168 c-18 418 -6 1218 24 1662 125 1822 555 3603 1263 5243
l55 127 -3994 0 -3994 0 0 -3320z m5310 3195 c19 -23 8 -50 -20 -50 -19 0 -26
6 -28 24 -5 35 26 53 48 26z m204 -7 c8 -14 7 -21 -6 -34 -30 -30 -75 9 -48
42 16 18 39 15 54 -8z m184 13 c8 -4 12 -19 10 -32 -2 -18 -9 -24 -28 -24 -28
0 -39 27 -20 50 14 17 20 18 38 6z m200 -3 c30 -30 -1 -73 -36 -51 -23 14 -25
29 -7 47 20 19 27 20 43 4z m196 -4 c9 -8 16 -19 16 -23 0 -16 -30 -33 -45
-27 -22 8 -29 34 -15 51 16 19 25 19 44 -1z m-776 -210 c4 -25 -20 -47 -42
-38 -16 6 -22 45 -9 58 14 14 48 1 51 -20z m196 10 c10 -25 7 -33 -13 -43 -27
-15 -56 9 -47 37 9 26 51 30 60 6z m196 -3 c7 -15 6 -24 -6 -36 -9 -9 -21 -14
-27 -12 -18 6 -31 33 -24 51 9 22 44 20 57 -3z m198 -8 c4 -30 -31 -49 -52
-27 -19 19 -20 26 -4 42 19 19 53 10 56 -15z m191 13 c23 -28 -17 -68 -45 -45
-15 12 -19 41 -7 52 11 12 40 8 52 -7z m-784 -216 c0 -18 -6 -26 -23 -28 -24
-4 -38 18 -28 44 3 9 15 14 28 12 17 -2 23 -10 23 -28z m200 6 c0 -30 -31 -44
-51 -24 -24 24 -11 50 23 46 20 -2 28 -9 28 -22z m190 -6 c0 -18 -6 -26 -23
-28 -24 -4 -38 18 -28 44 3 9 15 14 28 12 17 -2 23 -10 23 -28z m200 0 c0 -29
-34 -40 -54 -17 -18 23 -2 49 28 45 20 -2 26 -8 26 -28z m199 14 c8 -21 -11
-44 -36 -44 -21 0 -33 22 -24 45 7 20 52 19 60 -1z m191 -14 c0 -18 -6 -26
-23 -28 -24 -4 -38 18 -28 44 3 9 15 14 28 12 17 -2 23 -10 23 -28z m200 20
c12 -20 -6 -50 -30 -50 -15 0 -26 7 -30 20 -9 27 1 40 30 40 13 0 27 -5 30
-10z m190 -20 c0 -18 -6 -26 -23 -28 -24 -4 -38 18 -28 44 3 9 15 14 28 12 17
-2 23 -10 23 -28z m-1367 -186 c4 -25 -20 -47 -42 -38 -16 6 -22 45 -9 58 14
14 48 1 51 -20z m196 4 c8 -14 7 -21 -6 -34 -30 -30 -75 9 -48 42 16 18 39 15
54 -8z m194 -9 c4 -30 -22 -46 -44 -28 -15 12 -19 41 -7 53 16 16 48 1 51 -25z
m196 9 c8 -14 7 -21 -5 -33 -28 -29 -73 11 -48 42 15 17 38 13 53 -9z m195 8
c14 -16 5 -42 -16 -50 -17 -7 -43 10 -43 28 0 7 5 17 12 24 16 16 33 15 47 -2z
m199 -12 c4 -25 -20 -47 -42 -38 -16 6 -22 45 -9 58 14 14 48 1 51 -20z m196
4 c8 -14 7 -21 -6 -34 -30 -30 -75 9 -48 42 16 18 39 15 54 -8z m194 -9 c4
-30 -22 -46 -44 -28 -15 12 -19 41 -7 53 16 16 48 1 51 -25z m-783 -199 c0
-20 -6 -26 -26 -28 -30 -4 -46 22 -28 45 20 23 54 12 54 -17z m194 16 c17 -20
2 -46 -25 -46 -26 0 -40 20 -30 45 7 19 40 20 55 1z m196 -16 c0 -18 -6 -26
-23 -28 -24 -4 -38 18 -28 44 3 9 15 14 28 12 17 -2 23 -10 23 -28z m199 15
c9 -24 -4 -45 -29 -45 -25 0 -38 21 -29 45 4 8 16 15 29 15 13 0 25 -7 29 -15z
m191 -15 c0 -18 -6 -26 -23 -28 -24 -4 -38 18 -28 44 3 9 15 14 28 12 17 -2
23 -10 23 -28z m-781 -183 c8 -13 6 -21 -7 -34 -13 -13 -21 -15 -34 -7 -24 15
-26 29 -7 48 19 19 33 17 48 -7z m190 7 c9 -8 16 -19 16 -23 0 -16 -30 -33
-45 -27 -22 8 -29 34 -15 51 16 19 25 19 44 -1z m196 1 c19 -23 8 -50 -20 -50
-19 0 -26 6 -28 24 -5 35 26 53 48 26z m204 -7 c8 -14 7 -21 -6 -34 -30 -30
-75 9 -48 42 16 18 39 15 54 -8z m184 13 c8 -4 12 -19 10 -32 -2 -18 -9 -24
-28 -24 -28 0 -39 27 -20 50 14 17 20 18 38 6z m-774 -214 c9 -14 7 -21 -7
-32 -33 -24 -71 11 -46 42 15 18 39 13 53 -10z m194 11 c16 -16 15 -23 -4 -42
-12 -12 -20 -13 -35 -6 -10 6 -19 16 -19 23 0 16 20 37 35 37 6 0 16 -5 23
-12z m200 -12 c5 -23 -23 -47 -44 -39 -15 5 -19 44 -7 57 13 13 48 1 51 -18z
m196 1 c9 -15 7 -21 -8 -32 -35 -26 -74 13 -44 43 16 16 38 12 52 -11z m194
-6 c4 -29 -15 -43 -40 -30 -18 10 -24 39 -11 53 15 15 48 1 51 -23z m-5768
-2038 c0 -5 -9 -39 -18 -78 l-18 -70 -81 -3 -81 -3 -6 -37 c-3 -20 -9 -47 -12
-59 -6 -22 -4 -23 66 -23 l73 0 -6 -42 c-4 -24 -11 -60 -17 -80 l-11 -38 -74
0 -73 0 -26 -107 c-13 -60 -32 -141 -41 -180 l-17 -73 -79 0 c-43 0 -79 3 -79
8 0 5 147 652 175 770 5 22 8 22 165 22 88 0 160 -3 160 -7z m190 -11 c0 -10
-29 -145 -65 -299 -36 -154 -65 -292 -65 -306 0 -31 13 -41 40 -32 24 8 30 29
110 375 34 146 64 268 66 272 5 7 154 12 154 5 0 -15 -143 -619 -152 -642 -7
-16 -23 -47 -37 -68 -66 -102 -246 -128 -315 -46 -40 47 -35 101 44 445 39
167 70 307 70 309 0 3 34 5 75 5 66 0 75 -2 75 -18z m457 -159 l-6 -178 38
163 c22 90 42 170 45 178 4 10 24 14 81 14 68 0 76 -2 71 -17 -2 -10 -44 -190
-92 -400 l-88 -383 -79 0 -79 0 6 188 6 187 -40 -165 c-21 -91 -42 -175 -45
-187 -5 -21 -11 -23 -84 -23 l-78 0 93 398 c51 218 93 398 93 400 1 1 38 2 82
2 l82 0 -6 -177z m572 167 c19 -5 44 -19 57 -31 41 -38 39 -79 -12 -305 -58
-262 -76 -320 -115 -373 -48 -67 -89 -81 -246 -81 -73 0 -133 3 -133 8 0 5
147 652 175 770 5 21 9 22 123 22 64 0 132 -4 151 -10z m511 -7 c0 -10 -23
-184 -50 -387 -28 -203 -50 -375 -50 -382 0 -11 -19 -14 -78 -14 l-79 0 8 48
c14 85 15 83 -38 80 l-47 -3 -18 -62 -19 -63 -78 0 -79 0 131 400 131 400 133
0 c120 0 133 -2 133 -17z m370 5 c0 -7 -9 -108 -21 -226 -11 -118 -18 -216
-17 -218 2 -2 37 88 78 199 40 111 80 214 87 230 l14 27 120 0 c110 0 120 -2
115 -17 -2 -10 -44 -190 -92 -400 l-88 -383 -74 0 -74 0 7 28 c19 74 115 494
114 500 0 8 -23 -50 -133 -330 l-78 -198 -71 0 -72 0 16 268 c10 147 16 268
15 269 -1 2 -17 -61 -35 -140 -18 -78 -47 -199 -63 -269 l-30 -128 -72 0 -73
0 93 398 c51 218 93 398 93 400 1 1 55 2 121 2 87 0 120 -3 120 -12z m760 -10
c-1 -13 -7 -48 -14 -78 l-12 -55 -81 -3 -81 -3 -11 -60 c-7 -34 -15 -67 -18
-75 -4 -11 10 -14 72 -14 68 0 76 -2 71 -17 -2 -10 -10 -44 -17 -75 l-12 -57
-75 -3 -76 -3 -22 -87 -22 -88 77 0 c43 0 80 -2 83 -5 3 -3 -2 -39 -11 -80
l-15 -75 -166 0 -167 0 93 398 c51 218 93 398 93 400 1 1 71 2 156 2 154 0
155 0 155 -22z m228 -160 c-3 -101 -3 -176 -1 -168 2 8 21 89 42 180 l38 165
76 3 c43 2 77 0 77 -3 0 -7 -154 -681 -172 -752 l-10 -43 -79 0 -78 0 4 183 5
182 -42 -180 -43 -180 -78 -3 c-42 -2 -77 1 -77 5 0 6 146 648 175 771 5 21
11 22 87 22 l81 0 -5 -182z m622 167 c0 -9 -7 -45 -16 -80 l-16 -65 -47 0 -46
0 -54 -232 c-29 -128 -62 -272 -73 -320 l-21 -88 -78 0 c-44 0 -79 4 -79 8 0
5 32 144 70 311 39 166 70 306 70 312 0 5 -21 9 -46 9 -38 0 -45 3 -41 18 3 9
11 42 17 72 7 30 15 58 17 63 2 4 80 7 174 7 146 0 169 -2 169 -15z m338 -5
c34 -21 62 -72 62 -112 0 -13 -25 -131 -55 -263 -63 -272 -84 -321 -158 -372
-91 -62 -224 -51 -268 21 -29 48 -24 112 32 351 68 297 81 324 171 369 67 34
166 36 216 6z m427 6 c42 -18 65 -61 65 -123 0 -92 -1 -93 -92 -93 l-81 0 6
34 c7 43 -11 63 -42 46 -21 -11 -25 -26 -21 -65 1 -11 29 -54 62 -95 80 -99
91 -128 86 -215 -7 -111 -66 -222 -138 -260 -70 -37 -197 -25 -241 22 -21 22
-24 34 -23 101 0 42 6 96 12 120 l13 42 76 0 75 0 -8 -47 c-14 -86 -11 -108
13 -111 32 -5 53 33 53 94 0 48 -5 58 -65 138 -94 126 -102 178 -50 293 26 58
64 98 110 119 40 18 147 18 190 0z m745 1 c0 -13 -105 -473 -116 -509 -4 -13
0 -18 17 -18 19 0 21 -4 15 -32 -4 -18 -10 -48 -13 -65 -4 -26 -10 -33 -29
-33 -20 0 -24 -8 -36 -62 l-14 -63 -83 -3 c-83 -3 -84 -3 -77 20 3 13 9 42 12
64 l6 42 -113 1 c-62 1 -114 3 -116 4 -1 2 5 29 13 61 13 51 259 559 286 594
15 18 248 17 248 -1z m-5882 -3288 c3 -28 -16 -43 -43 -33 -15 6 -21 45 -8 58
16 16 48 1 51 -25z m196 9 c8 -14 7 -21 -6 -34 -30 -30 -75 9 -48 42 16 18 39
15 54 -8z m196 3 c7 -15 6 -23 -6 -35 -19 -19 -26 -20 -42 -4 -16 16 -15 45 1
51 24 10 36 7 47 -12z m184 13 c19 -7 21 -35 4 -52 -16 -16 -23 -15 -42 4 -12
12 -13 20 -6 35 11 20 19 23 44 13z m-579 -224 c0 -18 -6 -26 -23 -28 -13 -2
-25 3 -28 12 -10 26 4 48 28 44 17 -2 23 -10 23 -28z m200 0 c0 -20 -6 -26
-26 -28 -17 -2 -29 3 -32 12 -11 28 4 47 32 44 20 -2 26 -8 26 -28z m193 18
c16 -16 -3 -48 -29 -48 -22 0 -34 22 -25 45 6 18 37 20 54 3z m197 -18 c0 -30
-33 -40 -51 -15 -19 25 -6 47 25 43 20 -2 26 -8 26 -28z m-601 -166 c9 -3 16
-16 16 -29 0 -25 -21 -38 -45 -29 -18 7 -20 50 -2 57 6 3 13 6 14 6 1 1 8 -2
17 -5z m210 -16 c8 -14 7 -21 -6 -34 -30 -30 -75 9 -48 42 16 18 39 15 54 -8z
m190 7 c27 -28 -10 -69 -40 -44 -17 14 -18 31 -2 47 16 16 23 15 42 -3z m200
-7 c7 -12 6 -21 -3 -32 -18 -22 -38 -20 -51 3 -7 15 -6 24 6 36 19 18 33 16
48 -7z"/>
<path d="M1996 3693 c-2 -10 -28 -119 -56 -243 -28 -124 -53 -233 -56 -242 -4
-14 1 -18 20 -18 32 0 53 21 61 62 4 18 27 118 51 222 24 104 44 196 44 206 0
31 -55 42 -64 13z"/>
<path d="M2472 3678 c-6 -18 -31 -102 -57 -185 -25 -84 -48 -159 -51 -168 -5
-12 2 -15 30 -15 20 0 36 1 36 3 0 1 13 90 29 197 16 107 27 196 26 198 -2 2
-8 -12 -13 -30z"/>
<path d="M4812 3693 c-17 -14 -32 -64 -72 -238 -28 -121 -49 -229 -48 -240 4
-28 44 -32 58 -5 16 30 112 448 108 473 -4 28 -21 31 -46 10z"/>
<path d="M5852 3495 c-45 -96 -82 -177 -82 -180 0 -3 20 -5 44 -5 l45 0 16 78
c10 42 28 121 41 176 14 54 23 100 21 102 -2 3 -41 -74 -85 -171z"/>
<path d="M9795 7185 c-55 -7 -116 -15 -135 -18 -19 -3 -57 -8 -85 -12 -54 -7
-206 -34 -375 -66 -128 -25 -154 -36 -158 -69 -5 -48 10 -56 75 -42 340 75
580 112 883 136 303 25 647 39 765 32 94 -6 115 -4 144 11 82 42 71 43 -486
42 -349 -1 -562 -6 -628 -14z"/>
<path d="M12723 7116 c-23 -6 -48 -18 -55 -25 -7 -8 -8 -11 -2 -8 9 5 69 -5
117 -19 14 -4 17 1 17 30 0 40 -5 42 -77 22z"/>
<path d="M12050 7050 c-9 -6 -10 -10 -3 -10 6 0 15 5 18 10 8 12 4 12 -15 0z"/>
<path d="M11988 7043 c7 -3 16 -2 19 1 4 3 -2 6 -13 5 -11 0 -14 -3 -6 -6z"/>
<path d="M11808 7033 c7 -3 16 -2 19 1 4 3 -2 6 -13 5 -11 0 -14 -3 -6 -6z"/>
<path d="M10769 7026 c-6 -6 -374 -44 -489 -51 -52 -4 -126 -11 -165 -17 -70
-11 -83 -13 -142 -16 -18 -1 -33 -7 -33 -14 0 -8 62 -9 248 -3 352 11 398 10
479 -9 95 -21 120 -20 173 7 51 25 58 49 26 85 -13 15 -31 22 -56 22 -20 0
-39 -2 -41 -4z"/>
<path d="M11473 7013 c9 -2 23 -2 30 0 6 3 -1 5 -18 5 -16 0 -22 -2 -12 -5z"/>
<path d="M8654 6961 c-102 -35 -100 -33 -129 -92 l-26 -50 28 7 c15 3 53 12
83 19 30 7 75 16 100 20 93 15 122 50 84 103 -19 28 -40 27 -140 -7z"/>
<path d="M11047 6413 c-1 0 -69 -4 -152 -8 -82 -3 -170 -7 -194 -8 -25 -1 -46
-7 -48 -14 -4 -10 26 -13 124 -14 70 0 137 -3 148 -5 24 -6 571 -10 668 -5 68
4 96 21 32 21 -19 0 -35 3 -35 8 0 4 -10 7 -22 8 -13 0 -48 4 -78 9 -44 7
-437 15 -443 8z"/>
<path d="M12680 6380 c0 -3 -67 -4 -149 -3 -168 3 -301 -13 -156 -18 163 -5
174 -5 168 5 -4 6 1 6 13 1 10 -5 70 -11 132 -13 106 -4 114 -3 110 15 -3 15
-13 18 -61 18 -31 0 -57 -2 -57 -5z"/>
<path d="M11833 6373 c9 -2 25 -2 35 0 9 3 1 5 -18 5 -19 0 -27 -2 -17 -5z"/>
<path d="M11890 6371 c0 -4 36 -8 81 -10 51 -1 79 1 75 7 -7 11 -156 14 -156
3z"/>
<path d="M8874 6231 c3 -4 -28 -18 -69 -30 -113 -35 -174 -76 -207 -138 -16
-29 -23 -53 -18 -53 6 0 -1 -21 -15 -46 -14 -26 -23 -49 -20 -52 3 -3 5 0 5 6
0 7 5 12 12 12 6 0 4 -8 -6 -19 -10 -11 -19 -31 -20 -44 -1 -17 -6 -23 -15
-19 -9 3 -12 1 -7 -6 3 -6 -2 -13 -13 -17 -15 -4 -22 -18 -26 -53 -11 -80 -16
-102 -26 -102 -6 0 -9 -8 -8 -17 3 -33 -1 -54 -9 -49 -15 9 -52 -24 -67 -61
-8 -19 -27 -51 -43 -71 -30 -39 -46 -72 -82 -162 -18 -45 -21 -70 -18 -137 2
-46 0 -83 -4 -83 -5 0 -6 -6 -1 -12 9 -15 5 -51 -7 -58 -4 -3 -9 -65 -11 -137
-3 -79 -8 -133 -14 -133 -5 0 -32 -12 -60 -25 -27 -14 -56 -25 -62 -25 -16 0
-17 -25 -1 -50 11 -17 7 -25 -30 -63 -23 -23 -42 -50 -42 -58 0 -8 -13 -25
-29 -36 -34 -26 -69 -96 -76 -155 -5 -39 -3 -37 18 23 13 37 34 80 48 97 45
58 52 33 15 -58 -13 -33 -22 -68 -19 -78 2 -10 -19 -69 -50 -133 -30 -63 -64
-146 -76 -184 -18 -61 -54 -285 -47 -293 2 -1 9 19 16 45 6 26 17 62 22 78 16
45 92 178 96 167 1 -5 -16 -54 -38 -108 -59 -141 -140 -361 -140 -379 0 -12 4
-14 19 -5 44 23 53 9 13 -19 -48 -35 -47 -35 -56 -86 l-7 -40 24 29 c21 26 28
28 60 22 20 -4 37 -11 37 -16 0 -4 -23 -28 -51 -51 -29 -24 -60 -57 -71 -74
l-19 -30 7 40 c16 87 32 79 -176 87 -102 3 -197 9 -211 13 -23 6 -26 3 -37
-32 -38 -129 -192 -907 -192 -972 0 -33 2 -34 130 -51 41 -6 111 -17 155 -25
44 -8 124 -19 177 -25 113 -12 215 -43 345 -106 95 -46 121 -72 130 -128 4
-25 -1 -39 -23 -65 -15 -18 -37 -36 -49 -41 -16 -6 -24 -19 -28 -50 -3 -25
-15 -53 -30 -69 -30 -32 -57 -83 -57 -109 0 -10 13 -43 30 -73 16 -30 30 -63
30 -75 0 -12 -13 -48 -30 -80 -21 -42 -30 -74 -30 -109 0 -27 -7 -88 -15 -135
-20 -111 -19 -155 4 -219 20 -59 16 -60 77 22 28 38 41 47 65 47 49 0 109 -43
109 -78 0 -14 -70 -153 -82 -162 -3 -3 -9 -17 -13 -32 -9 -34 19 -72 55 -75
74 -7 239 -7 245 -1 4 4 -2 45 -14 90 -74 280 -94 371 -120 523 -16 94 -34
224 -40 290 -12 140 -24 321 -23 350 1 11 3 76 5 145 4 106 10 149 45 280 22
85 46 183 53 218 6 34 16 61 22 59 6 -2 9 -42 9 -95 -1 -51 2 -92 7 -92 12 0
-17 -161 -33 -179 -7 -9 -17 -41 -21 -71 -9 -68 -30 -120 -47 -120 -8 0 -15
-11 -16 -25 -2 -24 0 -25 38 -19 54 9 51 -6 -10 -50 -66 -47 -65 -59 4 -51 53
7 54 7 54 -19 0 -17 -6 -26 -17 -27 -12 0 -11 -2 4 -9 14 -6 15 -9 5 -10 -50
-5 -74 -10 -83 -19 -15 -15 0 -29 27 -24 13 3 33 0 45 -6 16 -9 19 -17 14 -43
l-6 -31 39 7 c32 5 26 0 -31 -23 -56 -23 -71 -33 -73 -52 -3 -19 -1 -22 9 -12
19 19 76 16 83 -3 9 -24 9 -23 -39 -44 -25 -11 -45 -24 -45 -29 0 -6 7 -8 15
-5 8 4 15 2 15 -3 0 -5 16 -7 36 -5 48 6 42 -16 -11 -42 l-40 -20 35 -9 c68
-17 77 -41 26 -62 -19 -8 -37 -19 -41 -24 -8 -14 14 -139 70 -404 10 -45 20
-63 53 -94 26 -24 32 -37 24 -45 -7 -7 -5 -16 9 -31 23 -25 24 -37 4 -37 -18
0 -19 -9 -5 -45 5 -14 14 -24 19 -21 5 3 11 -1 15 -9 3 -9 -3 -19 -14 -25 -27
-15 -25 -28 5 -36 27 -7 34 -24 11 -24 -19 0 -32 -20 -19 -29 6 -3 13 -24 17
-45 4 -22 11 -35 14 -29 5 8 15 5 31 -8 l23 -19 -31 -6 c-41 -9 -55 -35 -46
-92 8 -56 26 -102 32 -84 6 17 30 15 37 -3 3 -8 12 -12 21 -9 24 10 18 -20
-10 -49 -16 -15 -28 -41 -31 -64 -3 -30 -2 -33 5 -17 5 12 14 25 20 28 18 12
22 -14 7 -45 -20 -40 -7 -73 14 -34 13 24 54 44 66 32 3 -3 -17 -25 -43 -51
-72 -66 -81 -87 -57 -131 17 -31 17 -37 4 -45 -10 -6 180 -10 522 -10 l536 0
21 93 c11 50 38 173 60 272 22 99 53 223 70 276 l30 94 68 -7 c249 -27 345
-20 459 34 15 7 49 5 114 -6 52 -9 126 -16 167 -16 82 0 92 7 113 90 21 83 50
134 95 167 28 21 44 41 45 55 2 66 -2 90 -30 207 -69 280 -89 422 -71 506 l6
30 48 -44 c26 -24 47 -52 47 -62 0 -33 16 -28 63 19 79 81 175 305 293 687 25
83 59 185 75 227 l30 77 52 11 c55 11 67 22 67 58 0 14 6 22 18 22 23 1 -25
29 -50 30 -25 0 -22 20 6 52 l24 27 79 -24 c102 -32 209 -34 243 -5 35 30 62
25 129 -26 76 -57 79 -63 43 -70 -18 -4 -34 -16 -41 -30 -12 -28 -15 -114 -3
-114 9 0 72 -122 72 -139 0 -7 5 -9 10 -6 6 3 10 1 10 -5 0 -6 21 -33 48 -59
44 -44 68 -90 112 -211 35 -99 43 -116 61 -133 10 -10 19 -26 19 -36 0 -10 6
-24 14 -30 8 -7 18 -25 21 -41 3 -16 13 -34 21 -41 8 -6 28 -38 46 -70 64
-121 108 -138 179 -71 l41 37 -1 80 c0 44 -9 123 -20 175 -11 52 -27 145 -36
205 -20 130 -37 225 -65 355 -11 52 -20 102 -20 111 0 9 27 38 60 64 61 49
120 127 120 160 0 10 6 26 14 34 33 37 67 90 101 160 28 57 36 84 35 125 -1
28 1 65 5 82 5 21 1 42 -10 63 -13 27 -14 35 -3 48 9 11 13 49 14 112 1 53 7
121 14 151 16 68 23 475 10 613 -7 85 -15 114 -56 205 -25 59 -55 115 -64 126
-12 12 -57 26 -137 42 -65 13 -121 23 -125 24 -18 1 -58 161 -63 255 -46 808
-59 881 -182 1004 -84 82 -140 115 -243 141 -49 13 -90 27 -90 32 0 4 -7 5
-15 2 -8 -4 -15 -2 -15 4 0 5 -33 8 -80 6 -72 -2 -87 -7 -159 -45 -107 -57
-142 -95 -175 -192 -14 -42 -26 -82 -26 -87 0 -5 -13 -38 -30 -73 -68 -145
-84 -328 -68 -786 5 -157 4 -201 -8 -229 -12 -29 -16 -32 -28 -19 -9 9 -12 23
-9 37 6 21 4 22 -28 17 -19 -4 -70 -11 -114 -17 -192 -26 -235 -35 -254 -55
-26 -26 -120 -303 -155 -458 -5 -22 -10 -26 -24 -19 -9 5 -60 8 -112 6 -62 -1
-98 2 -102 10 -13 20 -9 28 12 23 11 -3 20 -2 20 3 0 8 95 50 114 50 30 0 66
26 66 48 0 27 -27 39 -103 48 -29 3 -62 7 -75 9 -67 11 -132 -65 -113 -132 10
-35 3 -40 -88 -63 -53 -14 -51 -16 -81 99 -47 181 -61 220 -98 270 -50 69 -90
87 -402 186 -104 33 -120 41 -167 88 -29 28 -53 54 -53 58 0 4 26 10 58 14 72
9 118 28 126 52 3 10 4 56 2 102 -3 77 -1 89 25 139 31 57 37 107 16 115 -7 3
-39 3 -71 1 -33 -3 -55 -1 -52 4 8 14 95 34 116 27 31 -10 49 64 24 102 -13
20 -14 30 -5 50 13 29 14 46 2 39 -12 -8 -24 40 -16 64 4 11 0 22 -10 27 -10
6 -18 34 -25 89 -16 135 -30 165 -106 237 -60 54 -120 92 -181 112 -27 9 -54
25 -61 35 -11 18 -10 19 13 10 38 -14 30 -3 -12 19 -30 15 -60 19 -136 19 -54
1 -95 -3 -93 -7z m2546 -214 c36 -23 40 -30 48 -85 6 -43 -9 -58 -63 -65 -54
-8 -85 -26 -85 -49 0 -22 -2 -22 50 -3 75 27 115 13 44 -15 -20 -8 -43 -24
-51 -35 -10 -14 -17 -16 -20 -7 -3 6 -11 12 -19 12 -9 0 -12 -4 -9 -10 3 -5 0
-10 -7 -10 -19 0 -74 -59 -87 -92 -13 -34 12 -58 58 -58 18 0 39 -7 48 -15 22
-23 14 -25 -32 -9 -54 19 -72 18 -84 -5 -13 -23 -5 -31 31 -31 16 0 44 -6 62
-14 29 -12 37 -12 54 0 17 12 22 11 41 -10 12 -12 25 -37 30 -53 l9 -31 -64
29 c-35 16 -79 29 -98 29 -42 0 -102 -24 -115 -47 -9 -16 -10 -14 -11 9 0 15
4 38 9 52 7 18 6 28 -4 36 -16 14 -15 17 -33 -62 -7 -26 -9 -55 -6 -65 3 -10
-4 -2 -14 17 -40 72 -37 133 9 185 9 11 19 29 21 40 2 11 12 21 23 24 20 3 20
3 0 -20 -23 -26 -2 -17 33 14 26 24 28 40 7 57 -12 10 -21 10 -40 2 -28 -13
-32 -4 -15 29 6 11 21 19 36 19 15 0 23 4 19 11 -4 6 -13 8 -21 5 -19 -7 -18
-2 17 69 34 69 83 122 144 154 48 26 43 26 85 -2z m234 -204 c50 -49 57 -61
50 -83 -14 -47 -6 -156 14 -189 l18 -30 18 29 c19 34 28 37 46 15 7 -8 19 -15
26 -15 10 0 13 -7 8 -26 -6 -23 -4 -25 17 -23 13 2 29 0 36 -4 13 -8 43 18 43
39 0 8 -9 14 -19 14 -11 0 -23 5 -26 10 -10 15 -23 12 -28 -7 -4 -15 -6 -15
-12 5 -4 12 -15 22 -26 22 -36 0 -28 19 18 41 27 13 52 22 56 21 5 -1 6 2 3 7
-4 5 3 12 13 16 23 7 61 -10 61 -27 0 -6 -9 -3 -20 7 -11 10 -22 16 -25 13 -3
-3 0 -10 8 -16 12 -10 9 -77 -6 -167 -5 -25 -98 -67 -105 -47 -2 6 -8 9 -14 6
-6 -4 -5 2 1 15 7 11 8 21 3 21 -16 0 -33 -27 -26 -43 3 -8 1 -25 -5 -36 -13
-24 3 -39 17 -15 16 29 32 7 20 -29 -16 -52 -23 -344 -8 -372 15 -28 9 -39
-51 -102 -25 -26 -59 -73 -75 -103 -37 -69 -61 -94 -96 -96 -23 -2 -31 4 -44
32 -9 19 -20 34 -25 34 -5 0 -9 9 -9 19 0 11 -6 22 -12 25 -9 3 -7 10 7 21 19
15 19 17 3 29 -12 9 -17 25 -15 54 1 30 -5 48 -20 64 -25 27 -29 46 -18 72 5
12 2 28 -9 47 -10 16 -15 38 -11 48 5 18 19 25 150 77 76 30 135 68 135 87 0
7 -5 4 -11 -6 -10 -17 -83 -57 -104 -57 -6 0 -40 -12 -74 -26 -35 -14 -100
-29 -145 -35 -70 -8 -83 -7 -93 7 -15 20 -55 12 -84 -17 -20 -20 -21 -20 -35
-2 -10 12 -13 34 -10 68 2 34 -2 66 -15 100 -10 28 -19 51 -19 51 0 1 15 0 33
-2 17 -1 47 -3 66 -3 25 -1 32 -5 27 -16 -9 -25 24 -17 100 24 53 29 75 36 83
28 8 -8 11 0 11 32 0 49 -6 62 -72 152 -36 51 -53 66 -67 62 -33 -8 -36 18 -5
42 16 12 33 23 37 23 5 0 14 8 21 18 11 14 18 15 49 5 20 -7 45 -10 54 -7 22
7 50 -8 34 -18 -6 -4 -11 -17 -10 -29 0 -12 3 -16 6 -9 2 6 11 12 18 12 7 0
23 8 35 18 21 17 21 19 6 34 -9 9 -16 20 -16 25 0 4 -19 25 -42 46 l-43 38 60
-3 c44 -2 59 0 58 10 -2 6 2 12 8 12 5 0 7 5 4 10 -17 27 18 4 69 -47z m-3104
9 c0 -4 -11 -23 -25 -42 -15 -20 -25 -28 -25 -18 0 8 9 27 21 42 21 27 29 32
29 18z m661 -39 c43 -40 41 -46 -25 -56 -36 -6 -38 -5 -32 16 3 12 6 34 6 50
0 15 2 27 5 27 3 0 24 -17 46 -37z m-687 -50 l-18 -28 22 19 c24 21 30 8 10
-24 -10 -15 -10 -22 0 -32 9 -9 8 -16 -5 -30 -13 -14 -13 -17 -2 -13 9 3 17
-6 25 -29 9 -29 8 -33 -5 -29 -13 4 -13 3 -2 -5 8 -6 10 -15 5 -23 -4 -7 7 -3
24 10 28 19 31 20 25 4 -3 -10 -9 -22 -13 -28 -4 -5 -6 -21 -5 -35 1 -14 -4
-33 -12 -42 -16 -18 -10 -38 11 -38 8 0 19 -6 25 -14 9 -11 8 -18 -4 -30 -18
-18 -29 -21 -20 -6 8 13 -11 46 -30 54 -17 6 -32 -22 -44 -89 -8 -40 -8 -40
-15 25 -8 71 4 120 29 120 14 0 14 4 0 38 -22 52 -26 123 -8 144 11 12 11 18
2 24 -8 5 -10 3 -4 -6 5 -8 4 -11 -3 -6 -6 3 -9 20 -7 35 4 33 24 75 32 68 2
-3 -3 -18 -13 -34z m703 -73 c13 0 13 -3 3 -15 -7 -8 -20 -15 -29 -15 -9 0
-33 -11 -54 -25 -40 -28 -50 -16 -19 21 22 28 53 45 70 39 8 -3 21 -5 29 -5z
m182 -114 c-5 -6 -16 -2 -28 8 -11 10 -24 15 -30 12 -6 -4 -5 4 2 16 28 54 30
54 48 12 9 -22 13 -43 8 -48z m-731 47 c-16 -20 -22 -110 -9 -146 6 -15 9 -2
13 47 3 37 11 73 17 79 8 8 11 5 11 -12 0 -12 4 -19 10 -16 17 11 11 -15 -11
-45 -18 -24 -20 -33 -11 -59 9 -26 8 -29 -6 -24 -10 3 -4 -7 13 -25 33 -33 82
-54 73 -31 -4 9 3 14 18 15 15 1 24 -4 24 -12 0 -8 5 -14 12 -14 6 0 4 -7 -5
-18 -10 -10 -17 -22 -17 -25 0 -9 23 -4 31 6 3 4 28 -6 56 -23 62 -38 91 -94
74 -141 -8 -24 -7 -37 5 -60 8 -16 12 -34 9 -39 -11 -18 -35 -10 -47 15 -6 14
-16 24 -22 22 -20 -7 -45 -53 -50 -93 -5 -40 -4 -42 24 -48 17 -3 37 -3 45 0
23 9 19 -21 -10 -65 -13 -22 -28 -42 -33 -45 -5 -3 -24 8 -43 24 -19 16 -44
29 -56 30 -30 0 -66 48 -60 80 3 14 8 42 12 62 l7 38 -31 -11 c-18 -6 -44 -27
-59 -45 -26 -32 -52 -45 -52 -25 0 5 -6 16 -12 23 -31 32 -68 132 -66 175 1
29 2 31 14 15 7 -9 14 -23 14 -29 0 -7 3 -12 8 -11 4 1 33 -6 65 -16 33 -10
70 -15 85 -12 20 5 23 4 12 -4 -11 -7 -11 -10 -2 -10 7 0 16 -10 21 -22 8 -21
10 -19 16 17 4 22 17 55 28 74 16 26 17 35 7 41 -16 10 -8 99 10 110 9 6 9 9
0 15 -6 4 -17 0 -23 -10 -31 -41 -121 42 -133 122 -4 26 -11 58 -15 71 -12 32
6 72 32 72 20 0 21 -2 7 -17z m3299 -25 c-3 -7 -5 -2 -5 12 0 14 2 19 5 13 2
-7 2 -19 0 -25z m-617 -28 c0 -5 -5 -10 -11 -10 -5 0 -7 5 -4 10 3 6 8 10 11
10 2 0 4 -4 4 -10z m-2185 -37 c85 -9 119 -30 123 -77 3 -31 -2 -42 -31 -71
-18 -18 -40 -32 -48 -30 -41 9 -59 19 -59 31 0 16 -30 8 -47 -14 -10 -12 -13
-11 -19 12 -3 14 -10 23 -15 20 -12 -7 -11 -54 1 -54 6 0 10 -7 10 -15 0 -8 4
-15 10 -15 5 0 21 -10 35 -22 18 -15 22 -25 14 -34 -13 -16 -52 -6 -45 12 8
22 -8 16 -34 -11 -44 -46 -90 -22 -109 58 -10 42 -9 51 7 75 11 15 22 39 26
55 3 15 10 27 15 27 5 0 14 13 21 29 13 32 32 42 65 35 11 -2 47 -7 80 -11z
m-424 -56 c28 -30 14 -33 -15 -4 -26 26 -32 47 -18 61 4 4 9 -2 10 -14 2 -13
12 -32 23 -43z m609 53 c0 -5 -4 -10 -10 -10 -5 0 -10 5 -10 10 0 6 5 10 10
10 6 0 10 -4 10 -10z m0 -30 c0 -5 -5 -10 -11 -10 -5 0 -7 5 -4 10 3 6 8 10
11 10 2 0 4 -4 4 -10z m1980 -22 c0 -5 4 -7 10 -3 13 8 50 -17 50 -33 0 -7 -4
-11 -9 -8 -20 13 -117 16 -149 5 -25 -8 -33 -16 -29 -29 4 -16 2 -17 -19 -8
-42 19 -29 69 21 81 35 8 125 5 125 -5z m-2510 -14 c0 -8 -4 -12 -10 -9 -5 3
-10 10 -10 16 0 5 5 9 10 9 6 0 10 -7 10 -16z m510 -165 c0 -7 5 -8 13 -2 6 5
28 9 47 8 29 0 36 -4 38 -23 3 -23 2 -23 -78 -21 -82 3 -102 11 -81 32 9 9 14
9 20 -1 7 -11 9 -10 14 2 7 18 27 22 27 5z m-58 -92 c7 -6 30 -23 51 -37 38
-26 55 -56 40 -71 -14 -14 -81 2 -107 26 -13 12 -31 25 -40 28 -14 5 -15 11
-6 27 6 11 15 18 21 15 5 -4 9 1 9 9 0 19 14 21 32 3z m-1065 -204 c-3 -10 -5
-4 -5 12 0 17 2 24 5 18 2 -7 2 -21 0 -30z m526 -203 c13 -47 30 -110 37 -141
10 -44 19 -60 41 -73 28 -16 59 -62 59 -87 0 -7 -13 -10 -35 -7 -31 4 -36 2
-33 -16 2 -16 20 -26 77 -43 41 -13 75 -22 76 -21 1 2 34 53 73 114 40 61 85
122 101 136 21 19 38 55 65 138 20 62 36 129 37 149 1 53 13 16 33 -99 8 -53
22 -118 31 -145 8 -27 12 -51 10 -53 -6 -6 -55 98 -55 116 0 6 -4 12 -9 12 -5
0 -7 8 -4 19 3 10 -1 22 -7 26 -9 6 -11 -1 -8 -26 3 -19 1 -47 -5 -62 -12 -35
7 -75 41 -88 l23 -9 -7 -138 c-4 -87 -3 -163 5 -207 6 -39 13 -96 15 -127 2
-32 7 -62 11 -68 11 -18 -16 -300 -35 -370 -21 -75 -75 -233 -91 -261 -16 -31
-34 -22 -58 29 -61 127 -116 255 -142 332 -87 248 -130 386 -153 485 -14 61
-44 180 -66 265 -49 187 -70 313 -69 400 l2 65 7 -80 c4 -44 19 -118 33 -165z
m2609 148 c9 -35 29 -91 44 -125 23 -53 29 -59 41 -47 8 8 19 12 24 9 13 -9
11 9 -3 23 -7 7 -8 12 -2 12 6 0 19 -18 29 -41 10 -22 27 -47 38 -54 11 -7 17
-18 13 -23 -3 -5 1 -18 8 -28 12 -16 12 -24 1 -51 -20 -48 -2 -41 61 25 49 50
84 100 223 310 33 50 36 52 43 30 11 -38 28 -306 28 -459 0 -79 7 -225 15
-324 28 -346 29 -373 11 -475 -9 -52 -26 -158 -36 -235 -24 -171 -39 -226 -70
-260 -13 -14 -19 -25 -13 -25 11 0 22 -26 32 -75 7 -36 98 -109 121 -98 21 11
142 5 154 -7 13 -13 26 -13 26 -1 0 6 -13 18 -30 28 -34 20 -40 43 -11 43 28
0 65 -64 58 -100 -8 -36 19 -128 44 -156 10 -11 19 -24 19 -28 0 -12 -27 7
-288 197 l-234 170 -56 -7 c-32 -3 -78 -9 -104 -12 -40 -6 -48 -4 -48 10 0 9
7 16 15 16 27 0 16 18 -29 44 -25 14 -47 26 -51 26 -7 0 78 -164 88 -168 11
-6 8 -52 -4 -52 -6 0 -36 23 -68 50 -72 62 -90 65 -31 4 40 -40 43 -46 27 -55
-9 -6 -15 -14 -12 -20 4 -5 -5 -4 -19 3 -14 6 -26 16 -26 22 0 15 -53 46 -78
46 -12 0 -24 -5 -28 -12 -9 -14 58 -70 70 -58 9 9 37 -5 86 -43 l25 -19 -25 7
c-14 4 -36 14 -50 23 -14 9 -34 17 -45 18 -11 1 -35 5 -52 9 -29 7 -34 5 -43
-19 -5 -14 -13 -26 -18 -26 -5 0 -26 26 -47 58 -54 82 -75 103 -97 96 -38 -12
-51 14 -43 85 4 36 11 75 16 88 9 25 68 65 85 59 6 -2 35 -7 65 -11 l54 -7 2
106 3 106 -38 15 -37 16 53 49 c51 48 52 51 52 105 0 35 4 54 10 50 6 -3 10
-1 10 5 0 6 5 8 13 4 7 -5 7 -2 -2 10 -8 9 -16 43 -17 74 l-3 57 21 -53 c26
-70 32 -63 7 10 -16 50 -17 66 -8 140 12 94 5 197 -16 239 -20 37 -20 304 0
494 8 77 15 164 15 193 0 28 3 52 8 52 4 0 15 -28 24 -62z m-2358 -3 c-4 -8
-11 -15 -16 -15 -6 0 -5 6 2 15 7 8 14 15 16 15 2 0 1 -7 -2 -15z m110 0 c18
-14 18 -15 1 -42 -11 -16 -20 -23 -23 -15 -2 6 -10 12 -18 12 -20 0 -29 27
-14 45 15 19 30 19 54 0z m-178 -390 c4 -8 9 -13 13 -11 4 3 8 -6 9 -20 1 -13
-3 -24 -9 -24 -6 0 -7 -6 -3 -12 5 -8 -2 -6 -16 3 -13 9 -30 30 -37 48 -13 30
-12 31 12 31 14 0 28 -7 31 -15z m1486 -515 c-7 -39 -32 -70 -32 -39 0 13 33
89 37 85 2 -1 -1 -22 -5 -46z m-59 -166 c35 -4 47 -10 47 -22 0 -10 -11 -80
-25 -156 -14 -77 -25 -164 -25 -193 0 -35 -7 -68 -21 -94 -16 -33 -19 -52 -14
-96 7 -69 27 -118 55 -133 12 -6 30 -20 41 -31 10 -10 25 -19 33 -19 8 0 16
-6 19 -14 3 -8 22 -20 41 -27 20 -7 36 -16 36 -21 0 -4 41 -26 91 -50 l91 -42
-6 -35 c-3 -20 -6 -47 -6 -61 0 -14 -4 -20 -8 -15 -4 6 -38 12 -77 13 -38 1
-100 5 -137 8 -87 8 -130 -11 -152 -67 -13 -33 -14 -54 -5 -141 6 -57 12 -143
14 -193 5 -156 26 -269 51 -279 8 -3 14 0 14 6 0 6 2 9 5 6 3 -3 2 -13 -1 -22
-5 -14 -9 -15 -16 -4 -7 9 -8 3 -4 -17 4 -17 3 -25 -2 -17 -6 9 -16 4 -39 -18
l-31 -30 -6 47 c-4 27 -15 95 -26 153 -44 248 -51 292 -65 430 -8 80 -24 191
-35 248 -11 56 -20 126 -20 155 0 29 -4 57 -8 63 -17 18 -62 276 -62 355 0 30
-4 71 -9 92 -5 20 -6 37 -2 37 4 0 8 11 9 25 3 34 45 115 74 141 32 30 47 34
93 28 22 -3 61 -7 88 -10z m-2105 -229 c0 -16 -2 -15 -8 5 -4 14 -8 36 -8 50
0 22 1 22 8 -5 4 -16 8 -39 8 -50z m49 -181 c33 -115 35 -125 25 -195 l-9 -74
-2 56 -1 56 -45 13 c-66 19 -101 68 -97 138 2 30 8 66 14 81 6 14 10 31 9 36
-2 5 0 7 4 3 7 -6 20 1 48 29 9 8 13 7 15 -5 2 -10 19 -72 39 -138z m2493 21
c0 -37 -4 -65 -10 -65 -6 0 -10 28 -10 65 0 37 4 65 10 65 6 0 10 -28 10 -65z
m-2036 -20 c17 -12 22 -22 18 -41 -2 -14 -11 -28 -19 -31 -11 -4 -10 -10 7
-25 32 -30 74 -39 223 -45 117 -5 137 -8 137 -22 -1 -32 -78 -397 -92 -431
-23 -59 -24 -60 -105 -60 -60 0 -74 3 -70 14 10 24 -16 46 -67 55 -52 10 -87
34 -70 51 6 6 33 2 77 -11 88 -26 172 -23 172 6 0 16 -11 23 -55 33 -30 8 -85
23 -122 34 -59 18 -68 24 -68 44 0 28 -3 28 51 9 75 -27 173 -46 199 -40 25 7
25 7 -10 25 -27 15 -30 19 -15 20 19 1 19 1 2 14 -27 21 -197 78 -213 72 -8
-3 -17 -20 -21 -37 -6 -30 -7 -31 -59 -27 -30 1 -54 0 -54 -4 0 -3 21 -14 48
-24 26 -10 49 -19 50 -20 2 -2 -1 -19 -8 -38 -12 -38 -21 -39 -88 -15 -13 5
-30 9 -38 9 -20 0 -18 -20 4 -26 28 -9 92 -37 92 -40 0 -2 -5 -15 -12 -29 -10
-23 -15 -25 -47 -18 -20 5 -58 7 -84 6 -51 -3 -154 24 -224 58 -43 22 -56 45
-47 89 l4 25 -11 -25 c-7 -14 -12 -70 -13 -125 l-1 -99 -14 62 c-12 50 -12 69
-2 104 23 79 48 133 59 131 6 -2 9 3 6 10 -9 25 44 62 86 61 22 -1 37 2 35 6
-3 5 -1 19 4 32 9 23 9 23 21 -9 18 -49 44 -43 110 26 50 52 62 59 108 66 l52
7 0 38 c0 22 -5 42 -10 45 -6 4 -8 16 -4 28 9 30 11 32 29 17 13 -11 15 -10
14 6 -3 28 0 54 6 54 3 0 16 -7 29 -15z m314 -12 c2 -8 -5 -13 -17 -13 -21 0
-35 13 -24 24 10 10 36 3 41 -11z m642 -165 c0 -87 -5 -86 -14 5 -4 43 -3 67
4 67 6 0 10 -29 10 -72z m-1982 -31 c-15 -12 -34 -38 -42 -57 l-15 -35 -1 37
c0 33 4 40 38 57 48 26 53 26 20 -2z m37 -37 c-14 -16 -15 -20 -4 -20 8 0 21
6 28 13 11 10 11 8 2 -11 -12 -23 -12 -23 18 -8 38 20 45 20 37 0 -6 -15 -4
-15 19 0 14 9 25 14 25 10 0 -4 7 -1 15 6 9 7 18 10 21 8 3 -3 -7 -15 -22 -27
-39 -30 -24 -36 16 -6 50 37 49 30 -4 -18 -46 -44 -56 -72 -33 -96 10 -11 9
-13 -5 -8 -10 4 -18 2 -18 -4 0 -6 -7 -9 -15 -5 -18 7 -31 -16 -38 -71 -4 -32
-1 -43 11 -48 18 -7 31 8 92 100 21 33 49 74 61 90 l23 30 -32 -29 c-18 -17
-32 -25 -32 -19 0 16 56 61 97 78 41 17 57 19 48 5 -3 -5 -1 -10 4 -10 6 0 10
-3 10 -7 -6 -40 17 -38 60 5 18 18 41 32 51 32 28 0 51 -11 44 -21 -3 -6 5 -7
20 -3 14 3 33 3 42 0 13 -5 7 -16 -29 -56 -70 -78 -144 -293 -133 -385 l7 -50
-20 32 c-11 18 -43 47 -70 65 -28 18 -51 37 -51 41 0 5 12 0 28 -11 53 -37 72
-44 72 -27 0 9 -12 27 -26 40 -24 23 -25 27 -19 92 9 79 1 78 -25 -4 -11 -32
-19 -49 -19 -38 -1 11 6 43 15 70 28 89 44 199 31 207 -20 13 -26 10 -75 -36
-49 -46 -122 -158 -122 -187 0 -9 -7 -19 -15 -23 -24 -9 -58 12 -94 60 -30 40
-33 51 -32 104 0 32 6 71 11 86 10 25 9 26 -7 13 -15 -12 -16 -12 -8 1 10 19
47 60 53 60 3 0 -3 -9 -13 -20z m184 -67 c-14 -16 -35 -39 -47 -52 -17 -19
-22 -21 -22 -9 0 9 19 32 43 52 51 43 60 46 26 9z m-243 -50 c-11 -11 -19 6
-11 24 8 17 8 17 12 0 3 -10 2 -21 -1 -24z m2021 -15 c-3 -8 -6 -5 -6 6 -1 11
2 17 5 13 3 -3 4 -12 1 -19z m-30 -10 c-3 -8 -6 -5 -6 6 -1 11 2 17 5 13 3 -3
4 -12 1 -19z m-1990 -10 c-3 -8 -6 -5 -6 6 -1 11 2 17 5 13 3 -3 4 -12 1 -19z
m4358 -8 c8 -13 -15 -13 -35 0 -12 8 -11 10 7 10 12 0 25 -4 28 -10z m-1255
-135 c11 -13 10 -14 -4 -9 -9 3 -16 10 -16 15 0 13 6 11 20 -6z m-2094 -40
c24 -12 26 -15 8 -15 -11 0 -29 7 -40 15 -25 19 -4 19 32 0z m3260 -115 c8 0
14 -6 14 -13 0 -15 37 -40 50 -32 4 3 10 0 12 -6 2 -6 14 -8 31 -4 21 6 27 13
27 35 0 23 5 29 31 34 17 3 41 6 53 6 20 -1 20 -2 4 -14 -10 -7 -18 -22 -18
-34 0 -36 -11 -52 -36 -52 -29 0 -30 7 -6 33 16 18 14 18 -18 -2 -19 -11 -42
-21 -52 -21 -9 0 -18 -6 -21 -12 -3 -8 -26 8 -61 42 -58 57 -73 81 -60 102 6
9 13 0 22 -25 8 -20 21 -37 28 -37z m-2739 7 c13 -44 7 -57 -29 -57 -21 0 -22
6 -7 66 13 51 19 50 36 -9z m2710 -64 c-19 -20 -16 -22 -56 41 -16 27 -28 53
-24 59 3 5 26 -11 52 -37 43 -43 45 -47 28 -63z m-3697 52 c14 -19 14 -19 -2
-6 -10 7 -18 18 -18 24 0 6 1 8 3 6 1 -2 9 -13 17 -24z m3646 -50 c-4 -26 -12
-25 -23 5 -10 27 -10 29 7 20 10 -5 17 -16 16 -25z m-2676 -40 c0 -20 -5 -25
-25 -25 -26 0 -29 7 -19 34 10 27 44 20 44 -9z m1320 -203 c0 -5 -7 -17 -15
-28 -14 -18 -14 -17 -4 9 12 27 19 34 19 19z m-43 -134 c-3 -8 -6 -5 -6 6 -1
11 2 17 5 13 3 -3 4 -12 1 -19z m-64 -93 c-3 -9 -8 -14 -10 -11 -3 3 -2 9 2
15 9 16 15 13 8 -4z m-123 -183 c0 -15 -2 -15 -10 -2 -13 20 -13 33 0 25 6 -3
10 -14 10 -23z m-10 -89 c-4 -42 -5 -44 -8 -15 -3 30 2 62 10 62 2 0 1 -21 -2
-47z m-270 -38 c0 -2 -5 -16 -11 -32 -8 -23 -12 -25 -19 -12 -7 12 -7 38 -1
56 1 3 31 -9 31 -12z m270 -69 c0 -39 -6 -30 -13 19 -4 27 -3 35 3 25 5 -8 10
-28 10 -44z m-125 -196 c-3 -11 1 -20 10 -24 16 -6 21 -46 6 -46 -5 0 -12 10
-15 23 -7 21 -7 21 -15 2 -6 -15 -9 -10 -14 25 -3 24 -3 48 0 53 9 14 34 -15
28 -33z m-151 -78 c7 -45 9 -85 5 -89 -5 -5 -5 -82 0 -172 8 -165 16 -196 47
-170 9 7 15 5 21 -5 7 -13 18 -8 65 28 30 25 70 67 88 95 19 28 35 50 36 48 2
-1 -1 -20 -6 -42 -5 -22 -10 -80 -10 -128 0 -148 -41 -234 -115 -244 -31 -4
-45 0 -62 15 -13 11 -23 23 -23 27 0 5 -6 16 -13 24 -8 9 -27 47 -43 86 -28
67 -29 75 -27 215 1 148 9 387 13 405 3 18 10 -10 24 -93z m221 69 c3 -5 1
-12 -5 -16 -5 -3 -10 1 -10 9 0 18 6 21 15 7z m33 -99 c-1 -15 2 -37 6 -50 9
-26 -1 -82 -15 -82 -10 0 -13 143 -2 153 10 11 12 9 11 -21z m-2058 -60 c0
-15 -24 -32 -47 -32 -29 0 -30 18 0 30 28 11 47 12 47 2z m1608 -247 c12 -13
17 -27 12 -30 -6 -4 -10 -17 -10 -31 0 -28 -22 -75 -43 -93 -17 -14 -60 -24
-53 -12 3 4 10 37 16 74 19 120 36 140 78 92z m331 -2 c-1 -14 -27 -78 -29
-73 -1 3 -3 22 -4 43 -2 30 1 37 16 37 10 0 18 -3 17 -7z m-1789 -703 c0 -5 6
-10 13 -10 7 0 22 -6 32 -14 18 -13 17 -15 -18 -29 -20 -9 -38 -22 -38 -29 -1
-7 -5 3 -8 22 -4 19 -3 40 1 46 4 6 5 14 1 17 -3 4 -1 7 5 7 7 0 12 -4 12 -10z"/>
<path d="M11160 5556 c0 -9 5 -16 10 -16 6 0 10 4 10 9 0 6 -4 13 -10 16 -5 3
-10 -1 -10 -9z"/>
<path d="M11875 5580 c3 -5 13 -10 21 -10 8 0 14 5 14 10 0 6 -9 10 -21 10
-11 0 -17 -4 -14 -10z"/>
<path d="M11162 5315 c0 -16 2 -22 5 -12 2 9 2 23 0 30 -3 6 -5 -1 -5 -18z"/>
<path d="M9124 5469 c0 -10 4 -19 8 -19 4 0 8 6 8 14 0 8 -4 17 -8 20 -4 2 -8
-4 -8 -15z"/>
<path d="M9100 5425 c0 -8 2 -15 4 -15 2 0 6 7 10 15 3 8 1 15 -4 15 -6 0 -10
-7 -10 -15z"/>
<path d="M11440 4691 c0 -6 4 -13 10 -16 6 -3 7 1 4 9 -7 18 -14 21 -14 7z"/>
<path d="M11411 4556 c-9 -10 -8 -15 3 -19 8 -3 22 -31 32 -61 18 -56 27 -67
37 -43 5 13 -16 107 -28 127 -9 14 -31 12 -44 -4z"/>
<path d="M11630 4453 c0 -15 2 -16 10 -3 10 16 14 8 11 -22 -2 -12 5 -18 18
-19 42 -3 46 -5 43 -24 -2 -17 -1 -17 7 -5 9 13 11 13 11 -2 0 -11 5 -15 14
-12 11 4 -3 21 -44 55 -33 27 -62 49 -65 49 -3 0 -5 -8 -5 -17z"/>
<path d="M11359 3280 c25 -21 41 -26 41 -11 0 5 -15 14 -32 20 l-33 11 24 -20z"/>
<path d="M11350 3129 c0 -5 5 -7 10 -4 6 3 10 8 10 11 0 2 -4 4 -10 4 -5 0
-10 -5 -10 -11z"/>
<path d="M11975 3001 c-3 -5 -1 -12 5 -16 5 -3 10 -2 10 3 0 5 12 7 28 5 21
-4 24 -2 12 6 -19 13 -47 14 -55 2z"/>
<path d="M8680 3231 c-5 -11 -10 -27 -10 -36 0 -9 -15 -22 -32 -30 l-33 -13
28 -11 c39 -15 64 -14 71 4 7 19 41 19 98 -1 52 -17 109 -16 116 4 2 8 -7 12
-27 12 -32 0 -45 19 -13 21 18 1 -54 38 -75 39 -7 0 -13 -9 -13 -19 0 -28 -11
-32 -55 -20 -34 10 -37 13 -31 40 6 33 -8 39 -24 10z"/>
<path d="M8177 3104 c-33 -30 -40 -45 -48 -97 -6 -33 -12 -64 -15 -68 -2 -4 0
-10 5 -13 10 -7 50 55 54 85 4 26 17 36 17 14 0 -14 3 -16 11 -8 8 8 22 125
15 123 -1 0 -18 -17 -39 -36z"/>
<path d="M8096 3024 c-3 -9 -6 -23 -6 -32 1 -15 3 -14 15 2 17 22 20 46 6 46
-5 0 -12 -7 -15 -16z"/>
<path d="M7780 2963 c0 -4 5 -15 10 -23 8 -13 10 -13 10 2 0 9 -4 20 -10 23
-5 3 -10 3 -10 -2z"/>
<path d="M12695 5794 c-49 -7 -93 -13 -97 -13 -5 -1 -8 -5 -8 -11 0 -5 20 -10
44 -10 24 0 59 -6 77 -14 19 -7 46 -16 62 -20 26 -6 27 -5 27 39 0 25 -3 44
-7 44 -5 -1 -48 -8 -98 -15z"/>
<path d="M12778 5653 c7 -3 16 -2 19 1 4 3 -2 6 -13 5 -11 0 -14 -3 -6 -6z"/>
<path d="M7675 4029 c5 -6 55 0 55 7 0 3 -13 3 -29 2 -16 -1 -28 -5 -26 -9z"/>
<path d="M7469 3947 c-19 -7 -40 -12 -47 -9 -6 2 -18 -21 -27 -55 -9 -32 -23
-80 -31 -107 -25 -88 -25 -88 59 -81 63 6 83 3 162 -23 50 -16 107 -33 127
-36 44 -8 43 -9 53 119 3 44 8 96 11 115 4 23 2 31 -4 22 -7 -11 -10 -10 -16
3 -3 10 -12 15 -21 11 -8 -3 -17 0 -21 6 -4 7 -3 8 4 4 7 -4 12 -3 12 2 0 6
-7 13 -16 16 -25 9 -64 7 -64 -4 0 -5 -9 -10 -19 -10 -11 0 -22 -6 -24 -12 -4
-10 -8 -9 -16 2 -9 13 -11 12 -11 -4 0 -28 -23 -4 -25 26 -2 28 -34 33 -86 15z"/>
<path d="M11350 2800 c-8 -5 -12 -12 -9 -15 4 -3 12 1 19 10 14 17 11 19 -10
5z"/>
<path d="M7034 2099 c-15 -18 -35 -162 -25 -172 4 -4 24 -10 45 -14 41 -6 67
10 92 60 8 15 38 42 66 59 l51 31 -39 20 c-50 26 -174 36 -190 16z"/>
<path d="M11417 1572 c-8 -11 27 -49 41 -44 8 2 12 -7 12 -28 0 -28 2 -31 15
-20 24 20 18 45 -15 57 -21 8 -28 16 -24 27 6 16 -20 24 -29 8z"/>
<path d="M8362 335 c0 -16 2 -22 5 -12 2 9 2 23 0 30 -3 6 -5 -1 -5 -18z"/>
<path d="M7027 152 c-21 -21 -37 -48 -37 -60 0 -36 29 -85 46 -78 9 3 18 6 20
6 2 0 4 17 4 38 0 20 9 52 21 71 21 35 19 61 -4 61 -7 0 -30 -17 -50 -38z"/>
</g>
</svg>
